<svg width="250" height="63" viewBox="0 0 250 63" fill="none" xmlns="http://www.w3.org/2000/svg">
<path d="M9.74353 34.5989V38.2513L20.987 34.8721V31.2196L9.74353 34.5989Z" fill="#212529"/>
<path d="M9.74353 27.0331V30.6855L20.987 27.3063V23.6538L9.74353 27.0331Z" fill="#212529"/>
<path d="M9.74353 49.7307V50.6667C9.74353 51.0397 9.87623 51.4004 10.1178 51.6845L14.1687 56.4468C14.4672 56.7978 14.9047 57 15.3653 57C15.8258 57 16.2633 56.7978 16.5618 56.4469L20.6127 51.6846C20.8543 51.4005 20.987 51.0397 20.987 50.6669V46.3514L9.74353 49.7307Z" fill="#212529"/>
<path d="M15.3653 20.2839C13.4186 20.2839 11.5227 20.1925 9.74353 20.0184V23.1195L19.697 20.1279C18.3017 20.23 16.8486 20.2839 15.3653 20.2839Z" fill="#212529"/>
<path d="M9.74353 42.1649V45.8175L20.987 42.4382V38.7856L9.74353 42.1649Z" fill="#212529"/>
<path d="M17.239 0V8.21902C17.239 9.25393 16.4001 10.0929 15.3652 10.0929C14.3303 10.0929 13.4913 9.25393 13.4913 8.21902V0C5.88926 0.79299 0 6.30752 0 11.9569C0 15.0098 7.68264 16.5361 15.3652 16.5361C23.0477 16.5361 30.7303 15.0096 30.7303 11.9569C30.7303 6.30752 24.8411 0.79299 17.239 0Z" fill="#212529"/>
<path d="M51.9936 8.1C52.5723 8.1 53.0669 8.30533 53.4776 8.716C53.9069 9.12667 54.1216 9.63067 54.1216 10.228V18.88C54.1216 19.4587 53.9069 19.9627 53.4776 20.392C53.0669 20.8027 52.5723 21.008 51.9936 21.008H51.8536L54.1776 27H49.4176L47.0656 21.008H44.9936V27H40.1216V8.1H51.9936ZM49.2776 12.44C49.2776 12.3653 49.2496 12.3 49.1936 12.244C49.1376 12.188 49.0816 12.16 49.0256 12.16H44.9936V17.2H49.0256C49.0816 17.2 49.1376 17.172 49.1936 17.116C49.2496 17.06 49.2776 17.004 49.2776 16.948V12.44ZM63.3666 27H58.1306V21.876H63.3666V27ZM72.3457 17.984V22.66C72.3457 22.7347 72.3737 22.8 72.4297 22.856C72.4857 22.8933 72.5417 22.912 72.5977 22.912H75.0897C75.295 22.912 75.3977 22.828 75.3977 22.66V8.1H80.2697V24.844C80.2697 25.46 80.0643 25.9733 79.6537 26.384C79.243 26.7947 78.739 27 78.1417 27H69.6297C69.051 27 68.547 26.7947 68.1177 26.384C67.6883 25.9733 67.4737 25.46 67.4737 24.844V17.984H72.3457ZM90.4369 27H85.2009V21.876H90.4369V27Z" fill="#212529"/>
<path d="M116.025 27H111.153V22.296H106.869V27H101.997V10.312C101.997 9.65867 102.202 9.12667 102.613 8.716C103.023 8.30533 103.555 8.1 104.209 8.1H113.813C114.466 8.1 114.998 8.30533 115.409 8.716C115.819 9.12667 116.025 9.65867 116.025 10.312V27ZM111.153 18.208V12.524C111.153 12.356 111.087 12.2253 110.957 12.132C110.845 12.02 110.686 11.964 110.481 11.964H107.457C107.289 11.964 107.149 12.02 107.037 12.132C106.925 12.244 106.869 12.3747 106.869 12.524V18.208H111.153ZM135.195 8.1L129.567 27H124.863L119.375 8.1H124.583L127.215 20.112L130.379 8.1H135.195ZM152.583 27H147.711V22.296H143.427V27H138.555V10.312C138.555 9.65867 138.76 9.12667 139.171 8.716C139.582 8.30533 140.114 8.1 140.767 8.1H150.371C151.024 8.1 151.556 8.30533 151.967 8.716C152.378 9.12667 152.583 9.65867 152.583 10.312V27ZM147.711 18.208V12.524C147.711 12.356 147.646 12.2253 147.515 12.132C147.403 12.02 147.244 11.964 147.039 11.964H144.015C143.847 11.964 143.707 12.02 143.595 12.132C143.483 12.244 143.427 12.3747 143.427 12.524V18.208H147.711ZM162.262 16.612V27H157.782V8.1H162.262L167.918 18.516V8.1H172.398V27H167.778L162.262 16.612ZM191.462 19.944V24.844C191.462 25.46 191.238 25.9733 190.79 26.384C190.361 26.7947 189.847 27 189.25 27H179.758C179.161 27 178.647 26.7947 178.218 26.384C177.807 25.9733 177.602 25.46 177.602 24.844V10.228C177.602 9.64933 177.807 9.15467 178.218 8.744C178.647 8.31467 179.161 8.1 179.758 8.1H189.25C189.847 8.1 190.361 8.31467 190.79 8.744C191.238 9.15467 191.462 9.64933 191.462 10.228V15.1H186.59V12.468C186.59 12.3747 186.562 12.3 186.506 12.244C186.45 12.188 186.394 12.16 186.338 12.16H182.782C182.577 12.16 182.474 12.2627 182.474 12.468V22.632C182.474 22.8187 182.577 22.912 182.782 22.912H186.338C186.394 22.912 186.45 22.8933 186.506 22.856C186.562 22.8 186.59 22.7253 186.59 22.632V19.944H191.462ZM196.145 8.1H208.493V12.16H200.989V15.464H207.485V19.496H200.989V22.912H208.493V27H196.145V8.1ZM217.688 16.612V27H213.208V8.1H217.688L223.344 18.516V8.1H227.824V27H223.204L217.688 16.612ZM218.444 1.968C218.948 1.968 219.377 2.052 219.732 2.22C220.105 2.36933 220.432 2.53733 220.712 2.724C221.01 2.91067 221.281 3.088 221.524 3.256C221.766 3.40533 222.018 3.48 222.28 3.48C222.653 3.48 222.933 3.34 223.12 3.06C223.325 2.76133 223.428 2.416 223.428 2.024H226.032C226.032 3.38667 225.724 4.42267 225.108 5.132C224.492 5.82267 223.68 6.168 222.672 6.168C222.168 6.168 221.729 6.09333 221.356 5.944C221.001 5.776 220.674 5.59867 220.376 5.412C220.077 5.22533 219.797 5.05733 219.536 4.908C219.293 4.74 219.041 4.656 218.78 4.656C218.406 4.656 218.126 4.80533 217.94 5.104C217.753 5.384 217.66 5.72 217.66 6.112H215.056C215.056 4.74933 215.364 3.72266 215.98 3.032C216.596 2.32267 217.417 1.968 218.444 1.968ZM247.056 27H242.184V22.296H237.9V27H233.028V10.312C233.028 9.65867 233.233 9.12667 233.644 8.716C234.054 8.30533 234.586 8.1 235.24 8.1H244.844C245.497 8.1 246.029 8.30533 246.44 8.716C246.85 9.12667 247.056 9.65867 247.056 10.312V27ZM242.184 18.208V12.524C242.184 12.356 242.118 12.2253 241.988 12.132C241.876 12.02 241.717 11.964 241.512 11.964H238.488C238.32 11.964 238.18 12.02 238.068 12.132C237.956 12.244 237.9 12.3747 237.9 12.524V18.208H242.184Z" fill="#DC3545"/>
<path d="M76.0439 57V46.696H83.2279V48.056H77.7879V51.176H82.6359V52.52H77.7879V55.656H83.2279V57H76.0439ZM89.0008 57V46.696H90.5368L95.9128 54.28V46.696H97.6408V57H96.1048L90.7448 49.432V57H89.0008ZM106.505 57V48.056H103.209V46.696H111.529V48.056H108.249V57H106.505ZM117.086 57V46.696H124.27V48.056H118.83V51.176H123.678V52.52H118.83V55.656H124.27V57H117.086ZM130.043 57V46.696H134.779C135.931 46.696 136.769 46.9947 137.291 47.592C137.825 48.1787 138.091 48.9787 138.091 49.992C138.091 50.7173 137.91 51.336 137.547 51.848C137.185 52.36 136.662 52.7173 135.979 52.92C136.171 53.0587 136.321 53.208 136.427 53.368C136.534 53.528 136.641 53.7413 136.747 54.008L138.043 57H136.251L134.987 54.12C134.87 53.8427 134.726 53.6453 134.555 53.528C134.395 53.4107 134.118 53.352 133.723 53.352H131.787V57H130.043ZM131.787 51.944H134.315C134.945 51.944 135.441 51.7893 135.803 51.48C136.166 51.1707 136.347 50.6747 136.347 49.992C136.347 48.7013 135.723 48.056 134.475 48.056H131.787V51.944ZM143.969 57V46.696H148.561C149.35 46.696 150.001 46.8453 150.513 47.144C151.025 47.4427 151.404 47.8533 151.649 48.376C151.894 48.888 152.017 49.4747 152.017 50.136C152.017 51.16 151.697 51.9813 151.057 52.6C150.428 53.2187 149.574 53.528 148.497 53.528H145.713V57H143.969ZM145.713 52.152H148.177C148.87 52.152 149.393 51.9707 149.745 51.608C150.097 51.2453 150.273 50.7547 150.273 50.136C150.273 49.4747 150.102 48.9627 149.761 48.6C149.43 48.2373 148.929 48.056 148.257 48.056H145.713V52.152ZM157.566 57V46.696H162.302C163.454 46.696 164.292 46.9947 164.814 47.592C165.348 48.1787 165.614 48.9787 165.614 49.992C165.614 50.7173 165.433 51.336 165.07 51.848C164.708 52.36 164.185 52.7173 163.502 52.92C163.694 53.0587 163.844 53.208 163.95 53.368C164.057 53.528 164.164 53.7413 164.27 54.008L165.566 57H163.774L162.51 54.12C162.393 53.8427 162.249 53.6453 162.078 53.528C161.918 53.4107 161.641 53.352 161.246 53.352H159.31V57H157.566ZM159.31 51.944H161.838C162.468 51.944 162.964 51.7893 163.326 51.48C163.689 51.1707 163.87 50.6747 163.87 49.992C163.87 48.7013 163.246 48.056 161.998 48.056H159.31V51.944ZM171.492 57V46.696H173.236V57H171.492ZM182.538 57.16C181.204 57.16 180.132 56.9893 179.322 56.648V55.112C179.78 55.2827 180.271 55.4213 180.794 55.528C181.327 55.6347 181.855 55.688 182.378 55.688C183.199 55.688 183.812 55.592 184.218 55.4C184.634 55.208 184.842 54.824 184.842 54.248C184.842 53.896 184.756 53.6133 184.586 53.4C184.415 53.1867 184.132 53.0053 183.738 52.856C183.343 52.696 182.799 52.5307 182.106 52.36C180.996 52.072 180.218 51.7093 179.77 51.272C179.322 50.824 179.098 50.2107 179.098 49.432C179.098 48.5253 179.428 47.816 180.09 47.304C180.751 46.792 181.738 46.536 183.05 46.536C183.647 46.536 184.207 46.5787 184.73 46.664C185.263 46.7493 185.679 46.8453 185.978 46.952V48.488C185.167 48.1787 184.271 48.024 183.29 48.024C182.522 48.024 181.924 48.1253 181.498 48.328C181.071 48.5307 180.858 48.8987 180.858 49.432C180.858 49.7413 180.932 49.992 181.082 50.184C181.231 50.376 181.487 50.5413 181.85 50.68C182.223 50.8187 182.735 50.9733 183.386 51.144C184.228 51.3573 184.879 51.6133 185.338 51.912C185.807 52.2 186.132 52.5413 186.314 52.936C186.506 53.32 186.602 53.7573 186.602 54.248C186.602 55.1547 186.266 55.8693 185.594 56.392C184.922 56.904 183.903 57.16 182.538 57.16ZM192.453 57V46.696H199.637V48.056H194.197V51.176H199.045V52.52H194.197V55.656H199.637V57H192.453ZM208.217 57.16C206.884 57.16 205.812 56.9893 205.001 56.648V55.112C205.46 55.2827 205.95 55.4213 206.473 55.528C207.006 55.6347 207.534 55.688 208.057 55.688C208.878 55.688 209.492 55.592 209.897 55.4C210.313 55.208 210.521 54.824 210.521 54.248C210.521 53.896 210.436 53.6133 210.265 53.4C210.094 53.1867 209.812 53.0053 209.417 52.856C209.022 52.696 208.478 52.5307 207.785 52.36C206.676 52.072 205.897 51.7093 205.449 51.272C205.001 50.824 204.777 50.2107 204.777 49.432C204.777 48.5253 205.108 47.816 205.769 47.304C206.43 46.792 207.417 46.536 208.729 46.536C209.326 46.536 209.886 46.5787 210.409 46.664C210.942 46.7493 211.358 46.8453 211.657 46.952V48.488C210.846 48.1787 209.95 48.024 208.969 48.024C208.201 48.024 207.604 48.1253 207.177 48.328C206.75 48.5307 206.537 48.8987 206.537 49.432C206.537 49.7413 206.612 49.992 206.761 50.184C206.91 50.376 207.166 50.5413 207.529 50.68C207.902 50.8187 208.414 50.9733 209.065 51.144C209.908 51.3573 210.558 51.6133 211.017 51.912C211.486 52.2 211.812 52.5413 211.993 52.936C212.185 53.32 212.281 53.7573 212.281 54.248C212.281 55.1547 211.945 55.8693 211.273 56.392C210.601 56.904 209.582 57.16 208.217 57.16Z" fill="black"/>
</svg>
