<?xml version="1.0" encoding="iso-8859-1"?>
<!-- Generator: Adobe Illustrator 19.0.0, SVG Export Plug-In . SVG Version: 6.00 Build 0)  -->
<svg version="1.1" id="Layer_1" xmlns="http://www.w3.org/2000/svg" xmlns:xlink="http://www.w3.org/1999/xlink" x="0px" y="0px"
	 viewBox="0 0 512 512" style="enable-background:new 0 0 512 512;" xml:space="preserve">
<g transform="translate(1 1)">
	<g>
		<path d="M451.267,59.463V24.6c0-14.507-11.093-25.6-25.6-25.6H58.733c-14.507,0-25.6,11.093-25.6,25.6v34.133H24.6
			c-5.12,0-8.533,3.413-8.533,8.533S19.48,75.8,24.6,75.8h8.533v34.133c0,14.507,11.093,25.6,25.6,25.6h366.933
			c14.507,0,25.6-11.093,25.6-25.6V76.888c14.679,3.814,25.6,17.216,25.6,33.046v34.133c0,16.213-11.947,30.72-27.307,34.133
			c-6.827,1.707-115.2,11.093-186.027,17.067c-18.773,0-34.133,15.36-34.133,34.133v51.2h-51.2c-2.56,0-5.12,1.707-6.827,3.413
			s-2.56,4.267-1.707,6.827l8.533,42.667c0.853,4.267,4.267,6.827,8.533,6.827h8.533v128c0,23.893,18.773,42.667,42.667,42.667
			c23.893,0,42.667-18.773,42.667-42.667v-128h8.533c4.267,0,7.68-2.56,8.533-6.827l8.533-42.667c0.853-2.56,0-5.12-1.707-6.827
			c-1.707-2.56-4.267-3.413-6.827-3.413h-51.2v-51.2c0-9.387,7.68-17.067,17.92-17.067c29.867-2.56,180.907-15.36,188.587-17.067
			c23.893-5.12,40.96-26.453,40.96-51.2v-34.133C493.933,84.68,475.4,63.558,451.267,59.463z M425.667,118.467H58.733
			c-5.12,0-8.533-3.413-8.533-8.533V101.4h85.333c5.12,0,8.533-3.413,8.533-8.533c0-5.12-3.413-8.533-8.533-8.533H50.2V50.2h170.667
			c5.12,0,8.533-3.413,8.533-8.533s-3.413-8.533-8.533-8.533H50.2V24.6c0-4.267,4.267-8.533,8.533-8.533h366.933
			c5.12,0,8.533,3.413,8.533,8.533v8.533h-59.733c-5.12,0-8.533,3.413-8.533,8.533s3.413,8.533,8.533,8.533H434.2v34.133H289.133
			c-5.12,0-8.533,3.413-8.533,8.533c0,5.12,3.413,8.533,8.533,8.533H434.2v8.533C434.2,115.053,430.787,118.467,425.667,118.467z
			 M282.307,323.267h-10.24c-5.12,0-8.533,3.413-8.533,8.533v136.533c0,14.507-11.093,25.6-25.6,25.6
			c-14.507,0-25.6-11.093-25.6-25.6H229.4c5.12,0,8.533-3.413,8.533-8.533c0-5.12-3.413-8.533-8.533-8.533h-17.067V434.2H229.4
			c5.12,0,8.533-3.413,8.533-8.533s-3.413-8.533-8.533-8.533h-17.067V331.8c0-5.12-3.413-8.533-8.533-8.533h-10.24l-5.12-25.6
			h98.987L282.307,323.267z"/>
	</g>
</g>
<g>
</g>
<g>
</g>
<g>
</g>
<g>
</g>
<g>
</g>
<g>
</g>
<g>
</g>
<g>
</g>
<g>
</g>
<g>
</g>
<g>
</g>
<g>
</g>
<g>
</g>
<g>
</g>
<g>
</g>
</svg>
