<?xml version="1.0" encoding="iso-8859-1"?>
<!-- Generator: Adobe Illustrator 19.0.0, SVG Export Plug-In . SVG Version: 6.00 Build 0)  -->
<svg version="1.1" id="Capa_1" xmlns="http://www.w3.org/2000/svg" xmlns:xlink="http://www.w3.org/1999/xlink" x="0px" y="0px"
	 viewBox="0 0 55 55" style="enable-background:new 0 0 55 55;" xml:space="preserve">
<g>
	<path d="M54.832,52.445l-2-3C52.646,49.167,52.334,49,52,49h-8V16.4c0-0.283-0.12-0.554-0.331-0.743l-16-14.4
		c-0.294-0.265-0.716-0.331-1.076-0.17C26.232,1.247,26,1.606,26,2v47h-2V23.474c0-0.306-0.14-0.596-0.38-0.785l-12-9.474
		c-0.301-0.236-0.71-0.282-1.056-0.114C10.219,13.268,10,13.617,10,14v35H3c-0.335,0-0.647,0.167-0.832,0.445l-2,3
		c-0.205,0.307-0.224,0.701-0.05,1.026C0.292,53.797,0.631,54,1,54h53c0.369,0,0.708-0.203,0.882-0.528
		C55.056,53.147,55.037,52.752,54.832,52.445z M28,4.245l14,12.601V49h-2V19h-2v30h-2V16h-2v33h-2V12h-2v37h-2V4.245z M12,16.064
		l10,7.894V49h-2V26h-2v23h-2V23h-2v26h-2V16.064z M2.869,52l0.667-1H11h12h4h3h2h2h2h2h2h3h8.465l0.667,1H2.869z"/>
</g>
<g>
</g>
<g>
</g>
<g>
</g>
<g>
</g>
<g>
</g>
<g>
</g>
<g>
</g>
<g>
</g>
<g>
</g>
<g>
</g>
<g>
</g>
<g>
</g>
<g>
</g>
<g>
</g>
<g>
</g>
</svg>
