<svg version="1.1" id="Uploaded to svgrepo.com" xmlns="http://www.w3.org/2000/svg" xmlns:xlink="http://www.w3.org/1999/xlink" x="0px" y="0px"
	 width="32px" height="32px" viewBox="0 0 32 32" style="enable-background:new 0 0 32 32;" xml:space="preserve">
<style type="text/css">
	.feather_een{fill:#111918;}
	.st0{fill:#0B1719;}
</style>
<path class="feather_een" d="M28,10h-2V7c0-2.761-2.239-5-5-5H11C8.239,2,6,4.239,6,7v3H4c-0.552,0-1,0.448-1,1v3
	c0,0.552,0.448,1,1,1h2v3.02c0,1.317,0.13,2.631,0.388,3.922l1.129,5.646C7.798,28.991,9.029,30,10.459,30h11.081
	c1.43,0,2.661-1.009,2.942-2.412l1.129-5.646C25.87,20.65,26,19.337,26,18.02V15h2c0.552,0,1-0.448,1-1v-3
	C29,10.448,28.552,10,28,10z M7,7c0-2.206,1.794-4,4-4h10c2.206,0,4,1.794,4,4v5h-1v-2c0-1.105-0.895-2-2-2H10c-1.105,0-2,0.895-2,2
	v2H7V7z M23,10v5c0,0.551-0.449,1-1,1H10c-0.551,0-1-0.449-1-1v-5c0-0.551,0.449-1,1-1h12C22.551,9,23,9.449,23,10z M4,14v-3h2v3H4z
	 M25,18.02c0,1.248-0.124,2.502-0.369,3.726l-1.129,5.646C23.315,28.324,22.491,29,21.541,29H10.459
	c-0.95,0-1.775-0.676-1.961-1.608l-1.129-5.646C7.124,20.522,7,19.268,7,18.02V13h1v2c0,1.105,0.895,2,2,2h12c1.105,0,2-0.895,2-2
	v-2h1V18.02z M28,14h-2v-3h2V14z M10,15h12v-5H10V15z M11,11h10v3H11V11z"/>
</svg>