<?xml version="1.0" encoding="iso-8859-1"?>
<!-- Generator: Adobe Illustrator 19.0.0, SVG Export Plug-In . SVG Version: 6.00 Build 0)  -->
<svg version="1.1" id="Layer_1" xmlns="http://www.w3.org/2000/svg" xmlns:xlink="http://www.w3.org/1999/xlink" x="0px" y="0px"
	 viewBox="0 0 511.147 511.147" style="enable-background:new 0 0 511.147 511.147;" xml:space="preserve">
<g>
	<g>
		<path d="M445.867,463.36c-3.413-3.413-8.533-3.413-11.947,0L416,481.28c-3.413,3.413-3.413,8.533,0,11.947
			c1.707,1.707,3.413,2.56,5.973,2.56c1.707,0,4.267-0.853,5.973-2.56l17.92-17.92C449.28,471.893,449.28,466.773,445.867,463.36z"
			/>
	</g>
</g>
<g>
	<g>
		<path d="M494.507,426.667l-18.773-18.773c-4.267-3.413-8.533-7.68-13.653-10.24c-23.04-12.8-38.4-29.013-42.667-46.08v-0.853
			l-7.68-17.92c-3.413-7.68-11.093-13.653-19.627-15.36s-17.92,1.707-23.893,7.68l-46.08,46.08
			c-6.827,5.973-9.387,15.36-7.68,23.893c1.707,8.533,7.68,16.213,16.213,19.627l17.92,7.68h0.853
			c17.067,4.267,31.573,17.92,45.227,41.813v0.853c2.56,5.973,4.267,11.093,9.387,16.213l17.92,17.92
			c7.68,7.68,18.773,11.947,29.867,11.947s22.187-4.267,31.573-12.8L495.36,486.4c7.68-7.68,11.947-18.773,11.947-29.867
			S502.187,434.347,494.507,426.667z M483.413,473.6l-11.947,11.947c-10.24,10.24-27.307,11.093-37.547,0.853L416,468.48
			c-2.56-1.707-4.267-5.973-5.973-10.24l-0.853-0.853v-0.853c-16.213-28.16-34.133-44.373-55.467-50.347l-17.067-7.68
			c-3.413-0.853-5.12-3.413-5.973-6.827c-0.853-2.56,0-5.973,2.56-8.533l46.08-46.933c1.707-1.707,4.267-2.56,6.827-2.56
			c0.853,0,1.707,0,3.413-0.853c2.56,0.853,5.12,2.56,6.827,5.973l7.68,17.067c5.973,21.333,23.893,41.813,51.2,56.32
			c2.56,0.853,5.12,3.413,8.533,6.827l18.773,18.773c4.267,5.12,7.68,11.093,7.68,17.92
			C491.093,462.507,488.533,468.48,483.413,473.6z"/>
	</g>
</g>
<g>
	<g>
		<path d="M367.36,336.213l-17.92-17.92c-1.707-1.707-3.413-2.56-5.973-2.56s-4.267,0.853-5.973,2.56L313.6,342.187
			c-3.413,3.413-3.413,8.533,0,11.947l17.92,17.92c1.707,1.707,3.413,2.56,5.973,2.56c1.707,0,4.267-0.853,5.973-2.56l23.893-23.893
			C370.773,344.747,370.773,339.627,367.36,336.213z M337.493,354.133l-5.973-5.973l11.947-11.947l5.973,5.973L337.493,354.133z"/>
	</g>
</g>
<g>
	<g>
		<path d="M379.307,167.253L242.773,30.72c-40.96-40.96-107.52-40.96-148.48,0L11.52,113.493c-5.12,4.267-7.68,11.093-7.68,17.92
			s2.56,12.8,8.533,17.92c9.387,9.387,26.453,9.387,35.84,0l82.773-82.773c20.48-21.333,54.613-21.333,75.947,0l136.533,136.533
			c16.213,17.067,16.213,44.373,0,60.587l-90.453,90.453c-10.24,9.387-10.24,25.6,0,35.84c5.12,5.12,11.093,7.68,17.92,7.68
			s12.8-2.56,17.92-6.827l90.453-90.453C416,263.68,416,203.947,379.307,167.253z M367.36,287.573l-90.453,90.453
			c-3.413,3.413-8.533,3.413-11.947,0c-3.413-3.413-3.413-8.533,0-11.947l90.453-90.453c23.04-23.04,23.04-61.44,0-84.48
			L218.88,54.613c-13.653-13.653-32.427-20.48-50.347-20.48c-18.773,0-36.693,6.827-50.347,20.48l-82.773,82.773
			c-3.413,3.413-8.533,3.413-11.947,0s-3.413-8.533,0-11.947l82.773-82.773c34.133-34.133,90.453-34.133,124.587,0L367.36,179.2
			C397.227,209.067,397.227,257.707,367.36,287.573z"/>
	</g>
</g>
<g>
	<g>
		<path d="M83.2,52.907L59.307,29.013c-1.707-1.707-3.413-2.56-5.973-2.56s-4.267,0.853-5.973,2.56L23.467,52.907
			c-1.707,1.707-2.56,4.267-2.56,5.973s0.853,4.267,2.56,5.973L47.36,88.747c1.707,1.707,3.413,2.56,5.973,2.56
			s4.267-0.853,5.973-2.56L83.2,64.853C86.613,61.44,86.613,56.32,83.2,52.907z M53.333,70.827L41.387,58.88l11.947-11.947
			L65.28,58.88L53.333,70.827z"/>
	</g>
</g>
<g>
	<g>
		<path d="M101.12,130.56l-23.893-23.893c-3.413-3.413-8.533-3.413-11.947,0s-3.413,8.533,0,11.947l24.747,24.747
			c1.707,1.707,3.413,2.56,5.973,2.56c1.707,0,4.267-0.853,5.12-3.413C104.533,139.093,104.533,133.973,101.12,130.56z"/>
	</g>
</g>
<g>
	<g>
		<path d="M294.827,324.267l-23.893-23.893c-3.413-3.413-8.533-3.413-11.947,0c-3.413,3.413-3.413,8.533,0,11.947l23.893,23.893
			c1.707,1.707,3.413,2.56,5.973,2.56s4.267-0.853,5.973-2.56C298.24,332.8,298.24,327.68,294.827,324.267z"/>
	</g>
</g>
<g>
	<g>
		<path d="M276.053,294.4c-3.413-3.413-8.533-3.413-11.947,0l-29.867,29.867c-3.413,3.413-3.413,8.533,0,11.947
			c1.707,1.707,3.413,2.56,5.973,2.56s5.12-0.853,5.973-2.56l29.867-29.867C279.467,302.933,279.467,297.813,276.053,294.4z"/>
	</g>
</g>
<g>
	<g>
		<path d="M247.04,324.267L84.053,161.28l23.04-23.893c3.413-3.413,3.413-8.533,0-11.947s-8.533-3.413-11.947,0L65.28,155.307
			c-1.707,1.707-2.56,3.413-2.56,5.973c0,2.56,0.853,4.267,2.56,5.973l168.96,168.96c1.707,1.707,3.413,2.56,5.973,2.56
			s5.12-0.853,6.827-2.56C250.453,332.8,250.453,327.68,247.04,324.267z"/>
	</g>
</g>
<g>
</g>
<g>
</g>
<g>
</g>
<g>
</g>
<g>
</g>
<g>
</g>
<g>
</g>
<g>
</g>
<g>
</g>
<g>
</g>
<g>
</g>
<g>
</g>
<g>
</g>
<g>
</g>
<g>
</g>
</svg>
