<?xml version="1.0" encoding="iso-8859-1"?>
<!-- Generator: Adobe Illustrator 19.0.0, SVG Export Plug-In . SVG Version: 6.00 Build 0)  -->
<svg version="1.1" id="Layer_1" xmlns="http://www.w3.org/2000/svg" xmlns:xlink="http://www.w3.org/1999/xlink" x="0px" y="0px"
	 viewBox="0 0 503.607 503.607" style="enable-background:new 0 0 503.607 503.607;" xml:space="preserve">
<g transform="translate(1 1)">
	<g>
		<g>
			<path d="M435.459,111.787h-50.361c-5.036,0-8.393,3.357-8.393,8.393c0,5.036,3.357,8.393,8.393,8.393h50.361
				c5.036,0,8.393-3.357,8.393-8.393C443.852,115.144,440.495,111.787,435.459,111.787z"/>
			<path d="M435.459,145.361h-50.361c-5.036,0-8.393,3.357-8.393,8.393s3.357,8.393,8.393,8.393h50.361
				c5.036,0,8.393-3.357,8.393-8.393S440.495,145.361,435.459,145.361z"/>
			<path d="M225.623,111.787c-5.036,0-8.393,3.357-8.393,8.393v67.148c0,5.036,3.357,8.393,8.393,8.393h67.148
				c5.036,0,8.393-3.357,8.393-8.393C301.164,149.557,263.393,111.787,225.623,111.787z M234.016,178.934v-49.521
				c22.662,4.197,45.325,26.859,49.521,49.521H234.016z"/>
			<path d="M494.213,178.095l-7.554-71.344c-0.839-3.357-1.679-6.715-3.357-10.072c-5.875-10.911-16.787-18.466-29.377-18.466
				h-1.679c-21.823,0-42.807-2.518-63.79-7.554c-48.682-10.911-128.42-10.911-177.102,0c-22.401,5.449-39.995,20.945-48.063,41.128
				h-38.389c-18.466,0-33.574,15.108-33.574,33.574H7.393c-5.036,0-8.393,3.357-8.393,8.393s3.357,8.393,8.393,8.393h83.934
				c0,18.466,15.108,33.574,33.574,33.574h38.371c8.021,20.183,25.446,35.679,47.242,41.128
				c43.256,9.695,111.014,10.768,159.735,3.234l14.848,50.484c1.679,3.357,5.036,5.875,8.393,5.875h16.787v57.915
				c0,9.233-3.357,17.626-10.072,24.341c-9.233,9.233-15.108,22.662-15.108,36.092s10.911,24.341,24.341,24.341h67.987
				c14.269,0,25.18-10.911,25.18-25.18V303.997L494.213,178.095z M158.475,178.934h-33.574c-9.233,0-16.787-7.554-16.787-16.787
				v-16.787c0-9.233,7.554-16.787,16.787-16.787h33.574v8.393v33.574V178.934z M400.207,279.656l-12.59-42.807l22.662-5.036v47.843
				H400.207z M477.426,422.344h-67.987c-4.197,0-7.554-3.357-7.554-7.554c0-9.233,4.197-17.626,10.072-24.341
				c9.233-9.233,15.108-22.662,15.108-36.092V220.902c0-2.518-1.679-5.036-3.357-6.715c-0.692-0.346-1.385-0.689-2.077-0.976
				c-1.564-0.984-3.518-1.356-5.477-0.703l-20.988,5.037l-10.907,2.517c-47.003,10.911-122.544,10.911-169.548,0
				c-23.502-5.036-39.449-26.02-39.449-49.521v-33.574c0-23.502,16.787-44.485,39.449-48.682
				c47.003-10.911,122.544-10.911,169.548,0c22.662,5.036,45.325,7.554,67.987,7.554h1.679c5.875,0,11.751,3.357,14.269,8.393
				c0.839,1.679,1.679,3.357,1.679,5.036l7.554,70.505l8.393,125.062v33.574h-25.18c-5.036,0-8.393,3.357-8.393,8.393
				c0,5.036,3.357,8.393,8.393,8.393h25.18v16.787h-25.18c-5.036,0-8.393,3.357-8.393,8.393c0,5.036,3.357,8.393,8.393,8.393h25.18
				v25.18C485.82,418.987,482.462,422.344,477.426,422.344z"/>
		</g>
	</g>
</g>
<g>
</g>
<g>
</g>
<g>
</g>
<g>
</g>
<g>
</g>
<g>
</g>
<g>
</g>
<g>
</g>
<g>
</g>
<g>
</g>
<g>
</g>
<g>
</g>
<g>
</g>
<g>
</g>
<g>
</g>
</svg>
