<svg width="42" height="43" viewBox="0 0 42 43" fill="none" xmlns="http://www.w3.org/2000/svg">
<path d="M39.3751 37.25H38.3907C38.3037 37.25 38.2202 37.2154 38.1587 37.1539C38.0971 37.0924 38.0626 37.0089 38.0626 36.9219V22.9364C38.0633 22.8842 38.0516 22.8325 38.0284 22.7858C38.0051 22.739 37.9711 22.6985 37.9291 22.6675C37.887 22.6365 37.8382 22.616 37.7867 22.6077C37.7351 22.5994 37.6824 22.6035 37.6327 22.6197C36.88 22.8563 36.0983 22.9882 35.3096 23.0118C35.2128 23.0118 35.1209 23.0159 35.0307 23.0159C33.5137 23.0195 32.0211 22.6343 30.6953 21.897C30.595 21.8412 30.482 21.8119 30.3672 21.8119C30.2524 21.8119 30.1394 21.8412 30.0391 21.897C28.7136 22.6343 27.2213 23.0195 25.7045 23.0159C24.1963 23.0181 22.7134 22.6283 21.4012 21.8847C21.3 21.8274 21.1857 21.7973 21.0694 21.7973C20.9531 21.7973 20.8388 21.8274 20.7376 21.8847C19.4056 22.6311 17.9036 23.021 16.3768 23.0168C14.8584 23.0178 13.3662 22.6219 12.048 21.8683C11.946 21.8103 11.8307 21.7798 11.7133 21.7798C11.5959 21.7798 11.4806 21.8103 11.3786 21.8683C10.0604 22.6219 8.56818 23.0178 7.04982 23.0168C6.96041 23.0168 6.87017 23.0168 6.77338 23.0127H6.76845C5.95207 22.9882 5.14333 22.8476 4.36658 22.5951C4.31739 22.5792 4.26514 22.5752 4.21409 22.5833C4.16304 22.5914 4.11463 22.6115 4.07281 22.6419C4.03099 22.6723 3.99694 22.7121 3.97343 22.7582C3.94993 22.8042 3.93764 22.8551 3.93756 22.9068V36.9219C3.93756 37.0089 3.90298 37.0924 3.84145 37.1539C3.77991 37.2154 3.69645 37.25 3.60943 37.25H2.66607C1.95732 37.25 1.34537 37.7947 1.3142 38.5034C1.30622 38.6806 1.33421 38.8575 1.39648 39.0235C1.45876 39.1895 1.55402 39.3412 1.67653 39.4693C1.79904 39.5975 1.94624 39.6996 2.10927 39.7693C2.27229 39.839 2.44775 39.875 2.62506 39.875H39.334C40.0428 39.875 40.6547 39.3303 40.6859 38.6216C40.6939 38.4444 40.6659 38.2675 40.6036 38.1015C40.5414 37.9355 40.4461 37.7838 40.3236 37.6557C40.2011 37.5275 40.0539 37.4254 39.8908 37.3557C39.7278 37.286 39.5524 37.25 39.3751 37.25ZM18.3751 31.6719C18.3751 31.7589 18.3405 31.8424 18.2789 31.9039C18.2174 31.9654 18.134 32 18.0469 32H10.8282C10.7412 32 10.6577 31.9654 10.5962 31.9039C10.5346 31.8424 10.5001 31.7589 10.5001 31.6719V26.4219C10.5001 26.1608 10.6038 25.9104 10.7884 25.7258C10.973 25.5412 11.2234 25.4375 11.4844 25.4375H17.3907C17.6518 25.4375 17.9021 25.5412 18.0867 25.7258C18.2713 25.9104 18.3751 26.1608 18.3751 26.4219V31.6719ZM31.1719 37.25H25.2657C25.1787 37.25 25.0952 37.2154 25.0337 37.1539C24.9721 37.0924 24.9376 37.0089 24.9376 36.9219V26.4219C24.9376 26.1608 25.0413 25.9104 25.2259 25.7258C25.4105 25.5412 25.6609 25.4375 25.9219 25.4375H30.5157C30.7768 25.4375 31.0271 25.5412 31.2117 25.7258C31.3963 25.9104 31.5001 26.1608 31.5001 26.4219V36.9219C31.5001 37.0089 31.4655 37.0924 31.4039 37.1539C31.3424 37.2154 31.259 37.25 31.1719 37.25ZM40.4062 14.4683L36.8854 6.38902C35.9634 4.40633 33.8576 3.125 31.5206 3.125H10.4754C8.13838 3.125 6.03263 4.40633 5.1106 6.38902L1.58982 14.4683C0.85154 16.0605 1.82689 17.6954 1.82771 17.6962L1.85068 17.7331C1.89088 17.7971 1.96224 17.8972 2.00572 17.9612C2.00982 17.9661 2.0131 17.9718 2.0172 17.9776L2.42736 18.4739C2.4427 18.4926 2.45913 18.5104 2.47658 18.5272L2.88673 18.9234L2.92119 18.9529C3.16206 19.1594 3.41971 19.3454 3.69146 19.5091V19.5132C4.58421 20.054 5.60133 20.3555 6.64459 20.3885H6.8472C8.42571 20.3914 9.94669 19.7961 11.1038 18.7224L11.1309 18.697C11.2517 18.5831 11.4115 18.5197 11.5775 18.5197C11.7436 18.5197 11.9033 18.5831 12.0242 18.697L12.0513 18.7224C13.2207 19.7943 14.7494 20.3889 16.3358 20.3889C17.9221 20.3889 19.4508 19.7943 20.6203 18.7224C20.7416 18.6101 20.9008 18.5477 21.0661 18.5477C21.2314 18.5477 21.3906 18.6101 21.5119 18.7224C22.6779 19.7909 24.201 20.3851 25.7825 20.3886C27.364 20.3921 28.8897 19.8046 30.0604 18.7413C30.1799 18.6306 30.3368 18.5691 30.4997 18.5691C30.6626 18.5691 30.8195 18.6306 30.939 18.7413C32.1109 19.8111 33.6433 20.3993 35.23 20.3885H35.4343C36.4513 20.3505 37.4409 20.048 38.3054 19.5107C38.3833 19.464 38.4579 19.4148 38.5334 19.3655C39.1164 18.9725 39.6238 18.4776 40.0313 17.9046L40.174 17.6888C40.1883 17.667 40.2014 17.644 40.2134 17.6199C40.3496 17.3427 41.0797 15.917 40.4062 14.4683Z" fill="#111111"/>
</svg>
