<?xml version="1.0" encoding="iso-8859-1"?>
<!-- Generator: Adobe Illustrator 19.0.0, SVG Export Plug-In . SVG Version: 6.00 Build 0)  -->
<svg version="1.1" id="Layer_1" xmlns="http://www.w3.org/2000/svg" xmlns:xlink="http://www.w3.org/1999/xlink" x="0px" y="0px"
	 viewBox="0 0 512 512" style="enable-background:new 0 0 512 512;" xml:space="preserve">
<g transform="translate(1 1)">
	<g>
		<path d="M383,374.467H255V7.533C255,2.413,251.587-1,246.467-1H127c-5.12,0-8.533,3.413-8.533,8.533v494.933
			c0,1.274,0.357,2.548,0.938,3.689c0.718,2.397,2.727,3.908,5.077,4.524c0.86,0.314,1.907,0.32,2.519,0.32h256
			c5.12,0,8.533-3.413,8.533-8.533V383C391.533,377.88,388.12,374.467,383,374.467z M237.933,16.067v363.52l-102.4,102.4v-56.32
			h34.133c5.12,0,8.533-3.413,8.533-8.533s-3.413-8.533-8.533-8.533h-34.133v-17.067H152.6c5.12,0,8.533-3.413,8.533-8.533
			s-3.413-8.533-8.533-8.533h-17.067V357.4h34.133c5.12,0,8.533-3.413,8.533-8.533s-3.413-8.533-8.533-8.533h-34.133v-17.067H152.6
			c5.12,0,8.533-3.413,8.533-8.533s-3.413-8.533-8.533-8.533h-17.067v-17.067h34.133c5.12,0,8.533-3.413,8.533-8.533
			s-3.413-8.533-8.533-8.533h-34.133V255H152.6c5.12,0,8.533-3.413,8.533-8.533s-3.413-8.533-8.533-8.533h-17.067v-17.067h34.133
			c5.12,0,8.533-3.413,8.533-8.533c0-5.12-3.413-8.533-8.533-8.533h-34.133v-17.067H152.6c5.12,0,8.533-3.413,8.533-8.533
			s-3.413-8.533-8.533-8.533h-17.067V152.6h34.133c5.12,0,8.533-3.413,8.533-8.533c0-5.12-3.413-8.533-8.533-8.533h-34.133v-17.067
			H152.6c5.12,0,8.533-3.413,8.533-8.533s-3.413-8.533-8.533-8.533h-17.067V84.333h34.133c5.12,0,8.533-3.413,8.533-8.533
			s-3.413-8.533-8.533-8.533h-34.133V50.2H152.6c5.12,0,8.533-3.413,8.533-8.533s-3.413-8.533-8.533-8.533h-17.067V16.067H237.933z
			 M374.467,493.933H147.48l102.4-102.4h124.587V493.933z"/>
	</g>
</g>
<g>
</g>
<g>
</g>
<g>
</g>
<g>
</g>
<g>
</g>
<g>
</g>
<g>
</g>
<g>
</g>
<g>
</g>
<g>
</g>
<g>
</g>
<g>
</g>
<g>
</g>
<g>
</g>
<g>
</g>
</svg>
